<?xml version="1.0" standalone="no"?>
<!DOCTYPE svg PUBLIC "-//W3C//DTD SVG 20010904//EN"
 "https://www.w3.org/TR/2001/REC-SVG-20010904/DTD/svg10.dtd">
<svg version="1.0" xmlns="http://www.w3.org/2000/svg"
 width="610.000000pt" height="610.000000pt" viewBox="0 0 610.000000 610.000000"
 preserveAspectRatio="xMidYMid meet">
<metadata>
Created by potrace 1.11, written by Peter Selinger 2001-2013
</metadata>
<g transform="translate(0.000000,610.000000) scale(0.100000,-0.100000)"
fill="#000000" stroke="none">
<path d="M2765 6069 c-872 -89 -1636 -523 -2157 -1226 -294 -396 -481 -854
-559 -1368 -26 -170 -36 -505 -20 -684 96 -1083 745 -2020 1722 -2485 650
-309 1383 -376 2089 -190 839 220 1563 820 1945 1609 400 828 404 1795 10
2622 -290 609 -765 1097 -1363 1401 -319 162 -606 253 -972 308 -126 18 -562
27 -695 13z m715 -208 c420 -68 797 -213 1136 -436 1058 -699 1526 -1996 1158
-3212 -101 -333 -283 -675 -511 -958 -346 -430 -849 -770 -1376 -929 -774
-234 -1608 -134 -2292 277 -667 400 -1145 1057 -1315 1807 -56 244 -65 331
-65 635 0 300 9 387 61 624 89 397 257 759 511 1100 170 227 484 517 732 676
369 235 799 386 1241 434 147 16 576 6 720 -18z"/>
<path d="M3952 5613 c-82 -40 -115 -144 -71 -223 39 -69 116 -102 186 -80 21
7 45 19 54 26 13 12 26 9 87 -19 40 -17 72 -34 72 -37 0 -12 -112 -60 -138
-60 -35 0 -52 -16 -52 -50 0 -30 16 -50 41 -50 12 0 66 -76 163 -228 80 -125
148 -235 151 -243 5 -14 -2 -14 -72 -1 -114 22 -661 21 -933 -2 -731 -61
-1575 -230 -1948 -390 -45 -19 -82 -34 -82 -33 0 1 36 121 79 267 59 202 82
266 95 268 26 5 40 50 23 76 -12 18 -25 21 -83 22 -38 0 -84 4 -103 8 -34 8
-34 9 -14 25 11 9 40 33 64 53 43 35 46 36 86 25 58 -15 111 3 156 52 63 70
58 161 -12 224 -47 43 -97 54 -154 37 -95 -28 -141 -133 -102 -231 9 -23 -147
-159 -174 -152 -23 6 -61 -29 -61 -57 0 -21 33 -60 51 -60 6 0 19 5 30 11 19
10 119 0 180 -17 18 -5 25 21 -111 -435 l-52 -177 -72 -48 c-97 -66 -278 -250
-352 -359 -237 -348 -367 -814 -333 -1196 53 -608 365 -1194 785 -1474 99 -67
104 -71 104 -102 0 -37 27 -55 74 -48 67 10 106 25 116 45 17 32 12 92 -10
115 l-19 21 772 108 c425 59 943 132 1152 162 558 78 1442 202 1504 210 53 7
53 7 41 -16 -16 -31 -5 -82 25 -110 22 -21 31 -22 91 -17 84 8 98 19 91 71 -5
37 -2 44 49 99 167 180 310 486 369 791 48 243 54 492 20 759 -77 599 -550
1214 -1080 1406 l-60 22 -177 277 -177 277 77 37 c43 21 93 38 113 38 42 0 59
15 59 50 0 38 -32 64 -70 57 -23 -5 -52 4 -122 37 l-93 43 -1 50 c-1 121 -125
199 -232 146z m135 -85 c32 -30 32 -90 -2 -123 -66 -67 -180 10 -144 97 24 58
98 71 146 26z m-2429 -344 c51 -58 12 -144 -67 -144 -32 0 -44 6 -65 31 -32
37 -33 68 -5 103 41 52 96 56 137 10z m3109 -1050 c42 -8 101 -25 132 -36 62
-24 57 -30 -39 -43 -30 -4 -226 -31 -435 -60 -209 -30 -381 -52 -383 -50 -6 6
89 72 150 105 168 90 389 123 575 84z m-1820 -77 c31 -17 156 -161 208 -239
56 -82 119 -213 110 -228 -3 -5 -25 -10 -49 -10 -23 0 -45 -2 -48 -5 -3 -3 14
-42 38 -88 48 -93 87 -202 109 -308 20 -94 18 -100 -34 -86 -22 6 -43 9 -46 6
-3 -3 2 -26 10 -50 52 -145 63 -345 26 -461 -27 -86 -46 -89 -55 -9 -24 212
-143 467 -280 601 -25 25 -46 48 -46 53 0 4 21 7 48 7 70 0 78 9 54 56 -50 97
-154 216 -269 307 -35 27 -63 53 -63 57 0 5 19 11 43 15 58 9 77 15 77 25 0
13 -139 114 -210 153 -36 19 -100 50 -142 68 -43 17 -78 35 -78 40 0 20 260
80 445 102 66 8 131 6 152 -6z m2288 -188 c26 -28 44 -53 41 -56 -8 -9 -1469
-214 -1475 -207 -3 2 9 33 26 67 l31 63 168 23 c93 12 383 53 644 91 261 37
485 68 496 69 13 1 39 -18 69 -50z m-3415 -154 c36 -7 92 -24 125 -36 l60 -23
-90 -14 c-362 -53 -835 -117 -835 -112 1 13 112 85 185 119 178 85 359 106
555 66z m3588 -135 c12 -33 18 -60 14 -60 -12 0 -1647 -230 -1664 -234 -16 -4
-18 4 -18 60 0 35 1 64 3 64 38 8 1600 228 1619 229 23 1 28 -5 46 -59z
m-3128 -131 c23 -27 41 -52 38 -54 -2 -2 -233 -36 -513 -75 -281 -40 -612 -86
-737 -104 -126 -18 -228 -29 -228 -25 0 13 37 93 52 111 10 14 96 29 443 78
237 33 518 73 625 89 278 41 268 42 320 -20z m3180 -168 c0 -70 27 -59 -235
-95 -99 -14 -439 -62 -755 -106 -316 -45 -600 -82 -630 -83 l-54 -2 -15 53
c-8 29 -12 54 -10 56 6 6 1618 233 1662 235 l37 1 0 -59z m-3010 -120 c15 -39
17 -53 8 -56 -7 -2 -143 -22 -303 -44 -159 -22 -531 -74 -826 -116 -295 -41
-539 -75 -542 -75 -13 0 -8 120 6 125 31 11 1623 231 1630 225 4 -4 17 -30 27
-59z m2956 -168 c-27 -74 -39 -92 -65 -97 -14 -3 -192 -28 -396 -57 -203 -28
-505 -70 -670 -94 l-300 -43 -47 51 c-27 28 -48 54 -48 57 0 4 249 42 553 84
303 43 638 90 742 106 105 15 202 28 217 29 27 1 27 1 14 -36z m-2906 -126 l0
-64 -297 -42 c-164 -23 -536 -75 -828 -116 -291 -41 -533 -75 -537 -75 -10 0
-43 108 -36 116 7 6 152 27 1088 158 294 41 546 77 560 79 14 2 31 5 38 6 8 1
12 -18 12 -62z m2694 -198 c-76 -80 -240 -173 -371 -211 -114 -33 -334 -33
-446 0 -88 25 -213 79 -204 88 3 3 212 35 464 70 252 36 483 69 513 73 30 5
59 9 64 10 6 0 -3 -13 -20 -30z m-2734 -54 c0 -19 -55 -135 -64 -135 -6 0
-315 -43 -686 -95 -371 -52 -682 -95 -692 -95 -9 0 -35 24 -58 53 l-42 52 29
7 c15 5 242 38 503 74 362 50 904 128 1003 143 4 0 7 -1 7 -4z m-240 -376
c-106 -96 -231 -163 -372 -200 -114 -30 -309 -31 -418 -1 -77 21 -220 80 -220
91 0 6 979 148 1030 149 23 1 22 -2 -20 -39z m1531 -10 c4 -7 13 -40 19 -74
18 -97 24 -98 67 -11 l38 77 50 -7 c65 -9 256 -57 320 -81 l50 -19 3 -69 3
-70 48 54 47 53 114 -55 c63 -31 150 -77 194 -102 l78 -47 -38 -39 c-21 -21
-36 -40 -33 -43 2 -2 27 0 54 4 91 16 109 12 161 -27 l49 -38 -45 -7 c-25 -5
-255 -37 -511 -73 l-466 -65 -79 36 c-233 107 -523 122 -767 40 l-69 -23 -63
58 c-34 33 -65 59 -69 59 -3 0 -4 -10 -2 -22 3 -13 8 -53 11 -89 l6 -66 -43
-26 c-24 -14 -75 -52 -114 -85 l-71 -60 -229 -32 c-126 -17 -353 -49 -504 -70
-151 -22 -276 -37 -279 -35 -2 3 16 31 40 62 l45 58 82 9 c45 5 82 12 82 15
-1 3 -19 18 -40 33 -22 15 -40 31 -40 36 0 9 191 200 232 231 14 12 29 21 34
21 4 0 38 -18 75 -39 38 -22 69 -38 69 -36 0 3 -11 34 -25 71 -14 36 -25 70
-25 75 0 23 351 229 389 229 7 0 42 -25 78 -56 36 -30 67 -53 70 -50 3 2 -1
39 -8 81 -7 45 -8 80 -3 85 25 24 423 128 443 116 5 -3 23 -39 42 -81 18 -41
35 -75 39 -75 4 0 18 40 33 90 l27 89 58 4 c110 9 365 -1 373 -14z m-140 -645
c84 -15 126 -34 79 -34 -14 0 -184 -23 -379 -50 -194 -28 -358 -50 -365 -50
-19 1 65 48 144 81 155 65 352 85 521 53z"/>
</g>
</svg>
